<svg width="780" height="240" viewBox="0 0 780 240" xmlns="http://www.w3.org/2000/svg" role="img" aria-label="Logo Descomplica Direito">
  <rect x="20" y="20" width="740" height="200" rx="28" fill="#ffffff"/>
  <rect x="32" y="32" width="716" height="176" rx="24" fill="none" stroke="#e8dde1" stroke-width="1.2"/>
  <g transform="translate(62 42)">
    <path d="M42 30L42 150" stroke="#4a0f19" stroke-width="3.2" stroke-linecap="round"/>
    <path d="M22 56L62 56" stroke="#7a1530" stroke-width="3.2" stroke-linecap="round"/>
    <path d="M22 86L62 86" stroke="#7a1530" stroke-width="3.2" stroke-linecap="round"/>
    <path d="M28 56C28 47 34 40 42 40C50 40 56 47 56 56" stroke="#7a1530" stroke-width="3.2" stroke-linecap="round" fill="none"/>
    <path d="M28 86C28 95 34 102 42 102C50 102 56 95 56 86" stroke="#7a1530" stroke-width="3.2" stroke-linecap="round" fill="none"/>
    <path d="M18 120L66 120" stroke="#4a0f19" stroke-width="3.2" stroke-linecap="round"/>
    <path d="M42 40L42 16" stroke="#7a1530" stroke-width="3.2" stroke-linecap="round"/>
    <path d="M42 120L42 144" stroke="#7a1530" stroke-width="3.2" stroke-linecap="round"/>
    <path d="M18 16L66 16" stroke="#7a1530" stroke-width="2.6" stroke-linecap="round"/>
    <path d="M20 144L64 144" stroke="#7a1530" stroke-width="2.6" stroke-linecap="round"/>
    <path d="M70 72C80 62 96 62 106 72" stroke="#4a0f19" stroke-width="3.2" stroke-linecap="round" fill="none"/>
    <path d="M70 98C80 108 96 108 106 98" stroke="#4a0f19" stroke-width="3.2" stroke-linecap="round" fill="none"/>
    <path d="M88 62L88 108" stroke="#4a0f19" stroke-width="3.2" stroke-linecap="round"/>
    <path d="M106 72L106 98" stroke="#4a0f19" stroke-width="3.2" stroke-linecap="round"/>
    <path d="M70 72L70 98" stroke="#4a0f19" stroke-width="3.2" stroke-linecap="round"/>
  </g>
  <g transform="translate(188 80)">
    <text x="0" y="26" fill="#4a0f19" font-family="Inter, 'Segoe UI', Arial, sans-serif" font-size="38" font-weight="700" letter-spacing="2.8">DESCOMPLICA</text>
    <text x="0" y="70" fill="#7a1530" font-family="Inter, 'Segoe UI', Arial, sans-serif" font-size="32" font-weight="600" letter-spacing="4.6">DIREITO</text>
    <line x1="0" y1="84" x2="264" y2="84" stroke="#a61f42" stroke-width="2" stroke-linecap="round"/>
  </g>
</svg>
